<svg width="16" height="17" viewBox="0 0 16 17" fill="none" xmlns="http://www.w3.org/2000/svg">
<g clip-path="url(#clip0_2416_368)">
<path d="M8 0.898438C3.58176 0.898438 0 4.4802 0 8.89844C0 12.6501 2.58304 15.7983 6.06752 16.6629V11.3432H4.41792V8.89844H6.06752V7.845C6.06752 5.12212 7.29984 3.86004 9.97312 3.86004C10.48 3.86004 11.3546 3.95956 11.7123 4.05876V6.27476C11.5235 6.25492 11.1955 6.245 10.7882 6.245C9.47648 6.245 8.9696 6.74196 8.9696 8.0338V8.89844H11.5827L11.1338 11.3432H8.9696V16.8399C12.9309 16.3615 16.0003 12.9887 16.0003 8.89844C16 4.4802 12.4182 0.898438 8 0.898438Z" fill="#24222A"/>
</g>
<defs>
<clipPath id="clip0_2416_368">
<rect width="16" height="16" fill="white" transform="translate(0 0.898438)"/>
</clipPath>
</defs>
</svg>
