<svg width="16" height="17" viewBox="0 0 16 17" fill="none" xmlns="http://www.w3.org/2000/svg">
<g clip-path="url(#clip0_2416_362)">
<path d="M8 2.33906C10.1375 2.33906 10.3906 2.34844 11.2313 2.38594C12.0125 2.42031 12.4344 2.55156 12.7156 2.66094C13.0875 2.80469 13.3563 2.97969 13.6344 3.25781C13.9156 3.53906 14.0875 3.80469 14.2313 4.17656C14.3406 4.45781 14.4719 4.88281 14.5063 5.66094C14.5438 6.50469 14.5531 6.75781 14.5531 8.89219C14.5531 11.0297 14.5438 11.2828 14.5063 12.1234C14.4719 12.9047 14.3406 13.3266 14.2313 13.6078C14.0875 13.9797 13.9125 14.2484 13.6344 14.5266C13.3531 14.8078 13.0875 14.9797 12.7156 15.1234C12.4344 15.2328 12.0094 15.3641 11.2313 15.3984C10.3875 15.4359 10.1344 15.4453 8 15.4453C5.8625 15.4453 5.60938 15.4359 4.76875 15.3984C3.9875 15.3641 3.56563 15.2328 3.28438 15.1234C2.9125 14.9797 2.64375 14.8047 2.36563 14.5266C2.08438 14.2453 1.9125 13.9797 1.76875 13.6078C1.65938 13.3266 1.52813 12.9016 1.49375 12.1234C1.45625 11.2797 1.44688 11.0266 1.44688 8.89219C1.44688 6.75469 1.45625 6.50156 1.49375 5.66094C1.52813 4.87969 1.65938 4.45781 1.76875 4.17656C1.9125 3.80469 2.0875 3.53594 2.36563 3.25781C2.64688 2.97656 2.9125 2.80469 3.28438 2.66094C3.56563 2.55156 3.99063 2.42031 4.76875 2.38594C5.60938 2.34844 5.8625 2.33906 8 2.33906ZM8 0.898438C5.82813 0.898438 5.55625 0.907812 4.70313 0.945312C3.85313 0.982813 3.26875 1.12031 2.7625 1.31719C2.23438 1.52344 1.7875 1.79531 1.34375 2.24219C0.896875 2.68594 0.625 3.13281 0.41875 3.65781C0.221875 4.16719 0.084375 4.74844 0.046875 5.59844C0.009375 6.45469 0 6.72656 0 8.89844C0 11.0703 0.009375 11.3422 0.046875 12.1953C0.084375 13.0453 0.221875 13.6297 0.41875 14.1359C0.625 14.6641 0.896875 15.1109 1.34375 15.5547C1.7875 15.9984 2.23438 16.2734 2.75938 16.4766C3.26875 16.6734 3.85 16.8109 4.7 16.8484C5.55313 16.8859 5.825 16.8953 7.99688 16.8953C10.1688 16.8953 10.4406 16.8859 11.2938 16.8484C12.1438 16.8109 12.7281 16.6734 13.2344 16.4766C13.7594 16.2734 14.2063 15.9984 14.65 15.5547C15.0938 15.1109 15.3688 14.6641 15.5719 14.1391C15.7688 13.6297 15.9063 13.0484 15.9438 12.1984C15.9813 11.3453 15.9906 11.0734 15.9906 8.90156C15.9906 6.72969 15.9813 6.45781 15.9438 5.60469C15.9063 4.75469 15.7688 4.17031 15.5719 3.66406C15.375 3.13281 15.1031 2.68594 14.6563 2.24219C14.2125 1.79844 13.7656 1.52344 13.2406 1.32031C12.7313 1.12344 12.15 0.985938 11.3 0.948438C10.4438 0.907813 10.1719 0.898438 8 0.898438Z" fill="#24222A"/>
<path d="M8 4.78906C5.73125 4.78906 3.89062 6.62969 3.89062 8.89844C3.89062 11.1672 5.73125 13.0078 8 13.0078C10.2688 13.0078 12.1094 11.1672 12.1094 8.89844C12.1094 6.62969 10.2688 4.78906 8 4.78906ZM8 11.5641C6.52813 11.5641 5.33437 10.3703 5.33437 8.89844C5.33437 7.42656 6.52813 6.23281 8 6.23281C9.47188 6.23281 10.6656 7.42656 10.6656 8.89844C10.6656 10.3703 9.47188 11.5641 8 11.5641Z" fill="#24222A"/>
<path d="M13.2312 4.62637C13.2312 5.15762 12.8 5.58574 12.2719 5.58574C11.7406 5.58574 11.3125 5.15449 11.3125 4.62637C11.3125 4.09512 11.7438 3.66699 12.2719 3.66699C12.8 3.66699 13.2312 4.09824 13.2312 4.62637Z" fill="#24222A"/>
</g>
<defs>
<clipPath id="clip0_2416_362">
<rect width="16" height="16" fill="white" transform="translate(0 0.898438)"/>
</clipPath>
</defs>
</svg>
