<svg width="16" height="17" viewBox="0 0 16 17" fill="none" xmlns="http://www.w3.org/2000/svg">
<g clip-path="url(#clip0_2416_366)">
<path d="M14.8156 0.898438H1.18125C0.528125 0.898438 0 1.41406 0 2.05156V15.7422C0 16.3797 0.528125 16.8984 1.18125 16.8984H14.8156C15.4688 16.8984 16 16.3797 16 15.7453V2.05156C16 1.41406 15.4688 0.898438 14.8156 0.898438ZM4.74687 14.5328H2.37188V6.89531H4.74687V14.5328ZM3.55938 5.85469C2.79688 5.85469 2.18125 5.23906 2.18125 4.47969C2.18125 3.72031 2.79688 3.10469 3.55938 3.10469C4.31875 3.10469 4.93437 3.72031 4.93437 4.47969C4.93437 5.23594 4.31875 5.85469 3.55938 5.85469ZM13.6344 14.5328H11.2625V10.8203C11.2625 9.93594 11.2469 8.79531 10.0281 8.79531C8.79375 8.79531 8.60625 9.76094 8.60625 10.7578V14.5328H6.2375V6.89531H8.5125V7.93906H8.54375C8.85938 7.33906 9.63438 6.70469 10.7875 6.70469C13.1906 6.70469 13.6344 8.28594 13.6344 10.3422V14.5328Z" fill="#24222A"/>
</g>
<defs>
<clipPath id="clip0_2416_366">
<rect width="16" height="16" fill="white" transform="translate(0 0.898438)"/>
</clipPath>
</defs>
</svg>
