<svg width="153" height="30" viewBox="0 0 153 30" fill="none" xmlns="http://www.w3.org/2000/svg">
<path fill-rule="evenodd" clip-rule="evenodd" d="M0 5.54492C0 9.02617 2.82211 11.8483 6.30336 11.8483C9.78461 11.8483 12.6067 9.02617 12.6067 5.54492H0Z" fill="#8D94FC"/>
<path d="M12.9243 24.7416V10.6763L1.20312 24.7416H12.9243Z" fill="#0616F4"/>
<path d="M20.3702 5.78924H24.0325V13.6584H24.2057C24.5192 12.8995 24.9729 12.2726 25.5668 11.7777C26.1607 11.2828 26.969 11.0353 27.9918 11.0353C28.7012 11.0353 29.3446 11.1673 29.922 11.4313C30.5159 11.6952 31.0191 12.0994 31.4315 12.6438C31.8604 13.1882 32.1904 13.8811 32.4213 14.7224C32.6688 15.5638 32.7925 16.5619 32.7925 17.7167C32.7925 18.8715 32.6688 19.8696 32.4213 20.7109C32.1904 21.5523 31.8604 22.2451 31.4315 22.7896C31.0191 23.334 30.5159 23.7381 29.922 24.0021C29.3446 24.266 28.7012 24.398 27.9918 24.398C26.969 24.398 26.1607 24.1588 25.5668 23.6804C24.9729 23.1855 24.5192 22.5503 24.2057 21.775H24.0325V24.1011H20.3702V5.78924ZM26.4081 21.5523C27.233 21.5523 27.8681 21.3048 28.3135 20.8099C28.759 20.2985 28.9817 19.5974 28.9817 18.7065V16.7268C28.9817 15.836 28.759 15.1431 28.3135 14.6482C27.8681 14.1368 27.233 13.8811 26.4081 13.8811C25.7647 13.8811 25.2038 14.0378 24.7254 14.3513C24.2635 14.6647 24.0325 15.1596 24.0325 15.836V19.5974C24.0325 20.2737 24.2635 20.7686 24.7254 21.0821C25.2038 21.3955 25.7647 21.5523 26.4081 21.5523ZM44.3886 11.3323H48.1252L42.112 26.155C41.7325 27.0953 41.2294 27.8129 40.6025 28.3078C39.9756 28.8028 39.1177 29.0502 38.0289 29.0502H35.5049V26.2045H38.5733L39.3652 24.0268L34.2181 11.3323H38.1527L40.0086 16.7021L41.1716 20.414H41.3696L42.4832 16.7021L44.3886 11.3323ZM56.9992 24.1011C55.6795 24.1011 54.6979 23.7546 54.0545 23.0618C53.4111 22.3689 53.0894 21.4863 53.0894 20.414V14.178H49.625V11.3323H51.8769C52.4213 11.3323 52.809 11.225 53.0399 11.0106C53.2709 10.7961 53.3864 10.4002 53.3864 9.82279V6.82856H56.7518V11.3323H61.7257V14.178H56.7518V21.2553H61.7257V24.1011H56.9992ZM71.1936 24.398C69.049 24.398 67.424 23.8041 66.3187 22.6163C65.2134 21.4285 64.6608 19.8118 64.6608 17.7662C64.6608 16.7268 64.801 15.7948 65.0814 14.9699C65.3784 14.1285 65.7908 13.4192 66.3187 12.8418C66.8631 12.2479 67.5148 11.8024 68.2736 11.5055C69.049 11.1921 69.9151 11.0353 70.8719 11.0353C71.8288 11.0353 72.6866 11.1921 73.4455 11.5055C74.2044 11.8024 74.8477 12.2314 75.3757 12.7923C75.9036 13.3532 76.3077 14.0378 76.5882 14.8462C76.8851 15.638 77.0336 16.5289 77.0336 17.5187V18.6075H68.2984V18.8302C68.2984 19.6551 68.5541 20.3232 69.0655 20.8346C69.5769 21.3296 70.3275 21.577 71.3174 21.577C72.0762 21.577 72.7279 21.4368 73.2723 21.1563C73.8167 20.8594 74.2868 20.4717 74.6828 19.9933L76.6624 22.1462C76.1675 22.7566 75.4746 23.2845 74.5838 23.7299C73.6929 24.1753 72.5629 24.398 71.1936 24.398ZM70.8967 13.6584C70.1048 13.6584 69.4697 13.9058 68.9913 14.4007C68.5293 14.8792 68.2984 15.5308 68.2984 16.3557V16.5536H73.4455V16.3557C73.4455 15.5143 73.2145 14.8544 72.7526 14.376C72.3072 13.8976 71.6885 13.6584 70.8967 13.6584ZM86.2046 24.398C85.1983 24.398 84.2909 24.2495 83.4826 23.9526C82.6907 23.6392 82.0143 23.1937 81.4534 22.6163C80.909 22.0389 80.4884 21.3378 80.1914 20.5129C79.8945 19.6881 79.746 18.756 79.746 17.7167C79.746 16.6774 79.8945 15.7453 80.1914 14.9204C80.4884 14.0956 80.909 13.3944 81.4534 12.817C82.0143 12.2396 82.6907 11.8024 83.4826 11.5055C84.2909 11.1921 85.19 11.0353 86.1799 11.0353C87.5821 11.0353 88.7039 11.324 89.5453 11.9014C90.4031 12.4623 91.0548 13.213 91.5002 14.1533L88.6792 15.6875C88.4482 15.1926 88.143 14.7802 87.7636 14.4502C87.4007 14.1203 86.8728 13.9553 86.1799 13.9553C85.3385 13.9553 84.6869 14.2028 84.225 14.6977C83.7795 15.1761 83.5568 15.836 83.5568 16.6774V18.756C83.5568 19.5974 83.7795 20.2655 84.225 20.7604C84.6869 21.2388 85.355 21.478 86.2294 21.478C86.9387 21.478 87.4914 21.3131 87.8873 20.9831C88.2998 20.6532 88.6462 20.2242 88.9266 19.6963L91.6982 21.2801C91.2362 22.2204 90.5599 22.9793 89.669 23.5567C88.7947 24.1176 87.6399 24.398 86.2046 24.398ZM94.9302 21.2553H97.8749V14.178H94.9302V11.3323H101.537V14.9452H101.711C101.826 14.4832 101.983 14.0378 102.181 13.6089C102.395 13.1635 102.659 12.7758 102.973 12.4458C103.302 12.0994 103.698 11.8272 104.16 11.6292C104.622 11.4313 105.167 11.3323 105.794 11.3323H107.006V14.6977H104.284C103.377 14.6977 102.692 14.9699 102.23 15.5143C101.768 16.0422 101.537 16.6939 101.537 17.4692V21.2553H105.744V24.1011H94.9302V21.2553ZM119.988 24.1011C119.229 24.1011 118.619 23.9114 118.157 23.5319C117.695 23.136 117.423 22.5751 117.34 21.8492H117.216C116.985 22.6906 116.524 23.3257 115.831 23.7546C115.154 24.1836 114.321 24.398 113.331 24.398C112.094 24.398 111.096 24.0681 110.337 23.4082C109.595 22.7318 109.224 21.7915 109.224 20.5872C109.224 19.2509 109.71 18.2611 110.684 17.6177C111.657 16.9743 113.084 16.6526 114.965 16.6526H117.018V16.0092C117.018 15.2504 116.837 14.6812 116.474 14.3018C116.128 13.9058 115.534 13.7079 114.692 13.7079C113.917 13.7079 113.29 13.8563 112.812 14.1533C112.333 14.4502 111.921 14.8379 111.574 15.3163L109.57 13.5346C109.999 12.8088 110.667 12.2149 111.574 11.753C112.498 11.2745 113.678 11.0353 115.113 11.0353C116.862 11.0353 118.223 11.4395 119.196 12.2479C120.186 13.0397 120.681 14.244 120.681 15.8607V21.4533H122.091V24.1011H119.988ZM114.717 21.9977C115.361 21.9977 115.905 21.841 116.35 21.5275C116.796 21.2141 117.018 20.7604 117.018 20.1665V18.6323H115.064C113.562 18.6323 112.812 19.1354 112.812 20.1418V20.6367C112.812 21.0821 112.985 21.4203 113.331 21.6512C113.678 21.8822 114.14 21.9977 114.717 21.9977ZM124.531 21.2553H128.293V14.178H124.284V11.3323H128.293V9.47635C128.293 8.38754 128.606 7.50494 129.233 6.82856C129.877 6.13568 130.866 5.78924 132.203 5.78924H136.533V8.63499H131.955V11.3323H136.533V14.178H131.955V21.2553H135.964V24.1011H124.531V21.2553ZM146.026 24.1011C144.706 24.1011 143.725 23.7546 143.081 23.0618C142.438 22.3689 142.116 21.4863 142.116 20.414V14.178H138.652V11.3323H140.904C141.448 11.3323 141.836 11.225 142.067 11.0106C142.298 10.7961 142.413 10.4002 142.413 9.82279V6.82856H145.778V11.3323H150.752V14.178H145.778V21.2553H150.752V24.1011H146.026Z" fill="#111014"/>
</svg>
