<svg width="16" height="17" viewBox="0 0 16 17" fill="none" xmlns="http://www.w3.org/2000/svg">
<g clip-path="url(#clip0_2416_372)">
<path fill-rule="evenodd" clip-rule="evenodd" d="M16 8.89844C16 13.3167 12.4183 16.8984 8 16.8984C3.58172 16.8984 0 13.3167 0 8.89844C0 4.48016 3.58172 0.898438 8 0.898438C12.4183 0.898438 16 4.48016 16 8.89844ZM8.28668 6.80439C7.50857 7.12804 5.95342 7.7979 3.62126 8.81399C3.24256 8.96458 3.04417 9.11191 3.02611 9.25597C2.99559 9.49944 3.30047 9.5953 3.71565 9.72585C3.77212 9.74361 3.83064 9.76201 3.89062 9.78151C4.29909 9.91429 4.84855 10.0696 5.13419 10.0758C5.3933 10.0814 5.68249 9.97457 6.00176 9.75533C8.18077 8.28444 9.30559 7.54098 9.37621 7.52495C9.42603 7.51364 9.49507 7.49942 9.54184 7.541C9.58862 7.58258 9.58402 7.66132 9.57907 7.68244C9.54886 7.8112 8.35208 8.92383 7.73275 9.49962C7.53967 9.67912 7.40272 9.80645 7.37472 9.83553C7.312 9.90067 7.24809 9.96229 7.18665 10.0215C6.80718 10.3873 6.52261 10.6617 7.20241 11.1096C7.52909 11.3249 7.79051 11.5029 8.05131 11.6805C8.33612 11.8745 8.62019 12.0679 8.98774 12.3089C9.08139 12.3703 9.17082 12.434 9.25793 12.4961C9.58938 12.7324 9.88717 12.9447 10.2551 12.9109C10.4688 12.8912 10.6896 12.6902 10.8018 12.0907C11.0668 10.6739 11.5878 7.60407 11.7081 6.33909C11.7187 6.22826 11.7054 6.08642 11.6948 6.02415C11.6841 5.96189 11.6618 5.87318 11.5809 5.8075C11.4851 5.72973 11.3371 5.71333 11.2709 5.71449C10.97 5.71979 10.5084 5.88032 8.28668 6.80439Z" fill="#24222A"/>
</g>
<defs>
<clipPath id="clip0_2416_372">
<rect width="16" height="16" fill="white" transform="translate(0 0.898438)"/>
</clipPath>
</defs>
</svg>
